<?xml version="1.0" encoding="UTF-8" standalone="no"?>
<svg xmlns="http://www.w3.org/2000/svg" xmlns:xlink="http://www.w3.org/1999/xlink" xmlns:serif="http://www.serif.com/" width="100%" height="100%" viewBox="0 0 1335 251" version="1.1" xml:space="preserve" style="fill-rule:evenodd;clip-rule:evenodd;stroke-linejoin:round;stroke-miterlimit:2;">
  <g id="Layer-1" serif:id="Layer 1">
    <path d="M0,57.411l39.875,-0l32.488,52.712l32.483,-52.712l39.879,-0l0,136.167l-37.542,-0l0,-78.2l-34.725,53.3l-0.775,-0l-34.529,-52.909l0,77.809l-37.154,-0l0,-136.167Z" style="fill:#0571ba;fill-rule:nonzero;"></path>
    <path d="M230.278,196.103c-9.725,-0 -18.484,-1.233 -26.263,-3.696c-7.779,-2.462 -14.392,-6.254 -19.837,-11.375c-5.45,-5.125 -9.63,-11.604 -12.55,-19.454c-2.917,-7.846 -4.375,-17.088 -4.375,-27.717l-0,-76.45l38.512,0l0,75.667c0,9.858 2.25,17.154 6.754,21.887c4.504,4.734 10.554,7.096 18.146,7.096c7.596,0 13.638,-2.266 18.142,-6.808c4.504,-4.538 6.758,-11.604 6.758,-21.204l0,-76.638l38.517,0l-0,75.475c-0,11.025 -1.529,20.521 -4.575,28.496c-3.046,7.975 -7.325,14.525 -12.838,19.65c-5.512,5.121 -12.191,8.913 -20.033,11.375c-7.85,2.463 -16.633,3.696 -26.358,3.696" style="fill:#0571ba;fill-rule:nonzero;"></path>
    <path d="M316.605,57.411l37.738,-0l-0,103.096l58.979,-0l0,33.071l-96.717,-0l0,-136.167Z" style="fill:#0571ba;fill-rule:nonzero;"></path>
    <path d="M435.848,90.48l-40.85,-0l-0,-33.071l119.433,-0l0,33.071l-40.846,-0l0,103.095l-37.737,0l-0,-103.095Z" style="fill:#0571ba;fill-rule:nonzero;"></path>
    <rect x="531.325" y="57.409" width="37.933" height="136.167" style="fill:#0571ba;"></rect>
    <path d="M631.864,71.612l-45.717,-0l0,-14.2l106.796,-0l0,14.2l-45.712,-0l-0,121.962l-15.367,0l0,-121.962Z" style="fill-rule:nonzero;"></path>
    <path d="M709.835,57.411l91.875,-0l-0,13.808l-76.509,0l0,46.879l64.967,0l-0,13.817l-64.967,0l0,47.85l76.3,0l0,13.813l-91.666,-0l-0,-136.167Z" style="fill-rule:nonzero;"></path>
    <path d="M943.941,57.411l15.367,-0l-0,60.5l78.587,-0l0,-60.5l15.367,-0l0,136.167l-15.367,-0l0,-61.275l-78.587,-0l-0,61.275l-15.367,-0l0,-136.167Z" style="fill-rule:nonzero;"></path>
    <path d="M1208.8,209.596c-46.379,-0 -84.108,-37.725 -84.108,-84.096c-0,-46.375 37.729,-84.104 84.108,-84.104c46.354,-0 84.067,37.729 84.067,84.104c-0,46.371 -37.713,84.096 -84.067,84.096m0,-209.596c-69.2,-0 -125.5,56.3 -125.5,125.5c0,69.196 56.3,125.492 125.5,125.492c69.184,-0 125.459,-56.296 125.459,-125.492c-0,-69.2 -56.275,-125.5 -125.459,-125.5" style="fill:#0571ba;fill-rule:nonzero;"></path>
    <path d="M1208.8,209.596c-46.379,-0 -84.108,-37.725 -84.108,-84.096c-0,-46.375 37.729,-84.104 84.108,-84.104c46.354,-0 84.067,37.729 84.067,84.104c-0,46.371 -37.713,84.096 -84.067,84.096" style="fill:#fff;fill-rule:nonzero;"></path>
    <path d="M1279.07,125.502c-0,-38.83 -31.463,-70.309 -70.267,-70.309c-38.846,0 -70.308,31.479 -70.308,70.309c-0,38.804 31.462,70.295 70.308,70.295c38.804,0 70.267,-31.491 70.267,-70.295" style="fill-rule:nonzero;"></path>
    <rect x="531.325" y="57.409" width="37.933" height="136.167" style="fill:#0571ba;"></rect>
    <path d="M916.626,164.767c-9.967,10.596 -23.858,17.23 -39.258,17.23c-17,-0 -32.221,-8.021 -42.284,-20.588c-7.825,-9.767 -12.533,-22.283 -12.533,-35.917l-0,-0.008c-0,-13.629 4.708,-26.146 12.533,-35.917c10.063,-12.562 25.284,-20.583 42.284,-20.583c15.4,0 29.291,6.633 39.258,17.225l10.425,-10.425c-12.717,-12.725 -30.283,-20.596 -49.683,-20.596c-38.846,0 -70.309,31.492 -70.309,70.296c0,38.833 31.463,70.308 70.309,70.308c19.404,0 36.97,-7.866 49.691,-20.591l-10.433,-10.434Z" style="fill-rule:nonzero;"></path>
    <path d="M1071.75,65.872l2.704,0c0.8,0 1.408,-0.158 1.812,-0.467c0.346,-0.266 0.5,-0.595 0.5,-1.079c0,-0.512 -0.146,-0.821 -0.471,-1.062c-0.4,-0.3 -1.008,-0.45 -1.812,-0.45l-2.733,-0l-0,3.058Zm8.691,6.804l-3.079,0l-3.375,-4.396l-2.237,0l-0,4.396l-2.463,0l0,-12.271l5.254,0c1.563,0 2.779,0.43 3.621,1.271c0.679,0.679 1.038,1.571 1.038,2.567c-0,1.217 -0.413,2.179 -1.196,2.846c-0.367,0.316 -0.796,0.571 -1.288,0.758l3.725,4.829Zm-6.521,-14.679c-1.216,0 -2.366,0.233 -3.42,0.688c-1.075,0.458 -2.017,1.095 -2.809,1.891c-0.783,0.796 -1.421,1.742 -1.887,2.813c-0.454,1.054 -0.688,2.204 -0.688,3.404c0,1.258 0.234,2.404 0.688,3.462c0.466,1.071 1.1,2.017 1.887,2.813c0.792,0.796 1.734,1.433 2.804,1.892c2.113,0.904 4.717,0.908 6.846,-0c1.067,-0.459 2.009,-1.096 2.8,-1.892c0.792,-0.804 1.425,-1.746 1.884,-2.813c0.458,-1.058 0.691,-2.204 0.691,-3.404c0,-1.258 -0.233,-2.408 -0.687,-3.466c-0.463,-1.063 -1.096,-2.009 -1.888,-2.809c-0.791,-0.796 -1.733,-1.433 -2.8,-1.891c-1.062,-0.455 -2.212,-0.688 -3.421,-0.688m0,20.033c-1.537,0 -3.008,-0.3 -4.37,-0.887c-1.355,-0.583 -2.55,-1.388 -3.559,-2.4c-1.004,-1.004 -1.808,-2.192 -2.391,-3.533c-0.592,-1.346 -0.888,-2.817 -0.888,-4.359c0,-1.6 0.296,-3.066 0.888,-4.416c0.583,-1.338 1.383,-2.53 2.391,-3.538c1.013,-1.012 2.204,-1.812 3.559,-2.396c2.695,-1.175 6.02,-1.179 8.741,0c1.35,0.584 2.546,1.388 3.55,2.396c1.009,1.004 1.813,2.2 2.396,3.538c0.588,1.354 0.883,2.82 0.883,4.358c0,1.596 -0.295,3.067 -0.883,4.417c-0.583,1.345 -1.392,2.533 -2.396,3.537c-1,1.004 -2.196,1.813 -3.554,2.396c-1.367,0.587 -2.837,0.887 -4.367,0.887" style="fill-rule:nonzero;"></path>
  </g>
</svg>
