<?xml version="1.0" encoding="UTF-8" standalone="no"?>
<!DOCTYPE svg PUBLIC "-//W3C//DTD SVG 1.1//EN" "http://www.w3.org/Graphics/SVG/1.1/DTD/svg11.dtd">
<svg width="100%" height="100%" viewBox="0 0 1335 251" version="1.1" xmlns="http://www.w3.org/2000/svg" xmlns:xlink="http://www.w3.org/1999/xlink" xml:space="preserve" xmlns:serif="http://www.serif.com/" style="fill-rule:evenodd;clip-rule:evenodd;stroke-linejoin:round;stroke-miterlimit:2;">
    <g id="Layer-1" serif:id="Layer 1">
        <path d="M0,57.411L39.875,57.411L72.363,110.123L104.846,57.411L144.725,57.411L144.725,193.578L107.183,193.578L107.183,115.378L72.458,168.678L71.683,168.678L37.154,115.769L37.154,193.578L-0,193.578L-0,57.411Z" style="fill:rgb(5,113,186);fill-rule:nonzero;"/>
        <path d="M230.278,196.103C220.553,196.103 211.794,194.87 204.015,192.407C196.236,189.945 189.623,186.153 184.178,181.032C178.728,175.907 174.548,169.428 171.628,161.578C168.711,153.732 167.253,144.49 167.253,133.861L167.253,57.411L205.765,57.411L205.765,133.078C205.765,142.936 208.015,150.232 212.519,154.965C217.023,159.699 223.073,162.061 230.665,162.061C238.261,162.061 244.303,159.795 248.807,155.253C253.311,150.715 255.565,143.649 255.565,134.049L255.565,57.411L294.082,57.411L294.082,132.886C294.082,143.911 292.553,153.407 289.507,161.382C286.461,169.357 282.182,175.907 276.669,181.032C271.157,186.153 264.478,189.945 256.636,192.407C248.786,194.87 240.003,196.103 230.278,196.103" style="fill:rgb(5,113,186);fill-rule:nonzero;"/>
        <path d="M316.605,57.411L354.343,57.411L354.343,160.507L413.322,160.507L413.322,193.578L316.605,193.578L316.605,57.411Z" style="fill:rgb(5,113,186);fill-rule:nonzero;"/>
        <path d="M435.848,90.48L394.998,90.48L394.998,57.409L514.431,57.409L514.431,90.48L473.585,90.48L473.585,193.575L435.848,193.575L435.848,90.48Z" style="fill:rgb(5,113,186);fill-rule:nonzero;"/>
        <rect x="531.325" y="57.409" width="37.933" height="136.167" style="fill:rgb(5,113,186);"/>
        <path d="M631.864,71.612L586.147,71.612L586.147,57.412L692.943,57.412L692.943,71.612L647.231,71.612L647.231,193.574L631.864,193.574L631.864,71.612Z" style="fill:white;fill-rule:nonzero;"/>
        <path d="M709.835,57.411L801.71,57.411L801.71,71.219L725.201,71.219L725.201,118.098L790.168,118.098L790.168,131.915L725.201,131.915L725.201,179.765L801.501,179.765L801.501,193.578L709.835,193.578L709.835,57.411Z" style="fill:white;fill-rule:nonzero;"/>
        <path d="M943.941,57.411L959.308,57.411L959.308,117.911L1037.89,117.911L1037.89,57.411L1053.26,57.411L1053.26,193.578L1037.89,193.578L1037.89,132.303L959.308,132.303L959.308,193.578L943.941,193.578L943.941,57.411Z" style="fill:white;fill-rule:nonzero;"/>
        <path d="M1208.8,209.596C1162.42,209.596 1124.69,171.871 1124.69,125.5C1124.69,79.125 1162.42,41.396 1208.8,41.396C1255.15,41.396 1292.87,79.125 1292.87,125.5C1292.87,171.871 1255.15,209.596 1208.8,209.596M1208.8,0C1139.6,0 1083.3,56.3 1083.3,125.5C1083.3,194.696 1139.6,250.992 1208.8,250.992C1277.98,250.992 1334.26,194.696 1334.26,125.5C1334.26,56.3 1277.98,0 1208.8,0" style="fill:rgb(5,113,186);fill-rule:nonzero;"/>
        <path d="M1208.8,209.596C1162.42,209.596 1124.69,171.871 1124.69,125.5C1124.69,79.125 1162.42,41.396 1208.8,41.396C1255.15,41.396 1292.87,79.125 1292.87,125.5C1292.87,171.871 1255.15,209.596 1208.8,209.596" style="fill:white;fill-rule:nonzero;"/>
        <path d="M1279.07,125.502C1279.07,86.672 1247.61,55.193 1208.8,55.193C1169.96,55.193 1138.5,86.672 1138.5,125.502C1138.5,164.306 1169.96,195.797 1208.8,195.797C1247.61,195.797 1279.07,164.306 1279.07,125.502" style="fill-rule:nonzero;"/>
        <rect x="531.325" y="57.409" width="37.933" height="136.167" style="fill:rgb(5,113,186);"/>
        <path d="M916.626,164.767C906.659,175.363 892.768,181.997 877.368,181.997C860.368,181.997 845.147,173.976 835.084,161.409C827.259,151.642 822.551,139.126 822.551,125.492L822.551,125.484C822.551,111.855 827.259,99.338 835.084,89.567C845.147,77.005 860.368,68.984 877.368,68.984C892.768,68.984 906.659,75.617 916.626,86.209L927.051,75.784C914.334,63.059 896.768,55.188 877.368,55.188C838.522,55.188 807.059,86.68 807.059,125.484C807.059,164.317 838.522,195.792 877.368,195.792C896.772,195.792 914.338,187.926 927.059,175.201L916.626,164.767Z" style="fill:white;fill-rule:nonzero;"/>
        <path d="M1071.75,65.872L1074.45,65.872C1075.25,65.872 1075.86,65.714 1076.27,65.405C1076.61,65.139 1076.77,64.81 1076.77,64.326C1076.77,63.814 1076.62,63.505 1076.3,63.264C1075.89,62.964 1075.29,62.814 1074.48,62.814L1071.75,62.814L1071.75,65.872ZM1080.44,72.676L1077.36,72.676L1073.99,68.28L1071.75,68.28L1071.75,72.676L1069.29,72.676L1069.29,60.405L1074.54,60.405C1076.1,60.405 1077.32,60.835 1078.16,61.676C1078.84,62.355 1079.2,63.247 1079.2,64.243C1079.2,65.46 1078.79,66.422 1078,67.089C1077.64,67.405 1077.21,67.66 1076.72,67.847L1080.44,72.676ZM1073.92,57.997C1072.7,57.997 1071.55,58.23 1070.5,58.685C1069.42,59.143 1068.48,59.78 1067.69,60.576C1066.91,61.372 1066.27,62.318 1065.8,63.389C1065.35,64.443 1065.12,65.593 1065.12,66.793C1065.12,68.051 1065.35,69.197 1065.8,70.255C1066.27,71.326 1066.9,72.272 1067.69,73.068C1068.48,73.864 1069.42,74.501 1070.5,74.96C1072.61,75.864 1075.21,75.868 1077.34,74.96C1078.41,74.501 1079.35,73.864 1080.14,73.068C1080.93,72.264 1081.57,71.322 1082.03,70.255C1082.48,69.197 1082.72,68.051 1082.72,66.851C1082.72,65.593 1082.48,64.443 1082.03,63.385C1081.57,62.322 1080.93,61.376 1080.14,60.576C1079.35,59.78 1078.41,59.143 1077.34,58.685C1076.28,58.23 1075.13,57.997 1073.92,57.997M1073.92,78.03C1072.38,78.03 1070.91,77.73 1069.55,77.143C1068.19,76.56 1067,75.755 1065.99,74.743C1064.99,73.739 1064.18,72.551 1063.6,71.21C1063.01,69.864 1062.71,68.393 1062.71,66.851C1062.71,65.251 1063.01,63.785 1063.6,62.435C1064.18,61.097 1064.98,59.905 1065.99,58.897C1067,57.885 1068.19,57.085 1069.55,56.501C1072.25,55.326 1075.57,55.322 1078.29,56.501C1079.64,57.085 1080.84,57.889 1081.84,58.897C1082.85,59.901 1083.65,61.097 1084.24,62.435C1084.83,63.789 1085.12,65.255 1085.12,66.793C1085.12,68.389 1084.83,69.86 1084.24,71.21C1083.65,72.555 1082.85,73.743 1081.84,74.747C1080.84,75.751 1079.64,76.56 1078.29,77.143C1076.92,77.73 1075.45,78.03 1073.92,78.03" style="fill:white;fill-rule:nonzero;"/>
    </g>
</svg>
